# Blender v2.79 (sub 0) OBJ File: 'T 90.blend'
# www.blender.org
o Left_Wheel_1_Cylinder.034
v -0.218911 0.408038 0.000000
v 0.152551 0.408038 0.000000
v -0.218911 0.376978 -0.156149
v 0.152551 0.376978 -0.156150
v -0.218911 0.288527 -0.288527
v 0.152551 0.288527 -0.288527
v -0.218911 0.156150 -0.376978
v 0.152551 0.156150 -0.376978
v -0.218911 0.000000 -0.408038
v 0.152551 -0.000000 -0.408038
v -0.218911 -0.156150 -0.376978
v 0.152551 -0.156150 -0.376978
v -0.218911 -0.288527 -0.288527
v 0.152551 -0.288527 -0.288527
v -0.218911 -0.376978 -0.156150
v 0.152551 -0.376978 -0.156150
v -0.218911 -0.408038 -0.000000
v 0.152551 -0.408038 -0.000000
v -0.218911 -0.376978 0.156150
v 0.152551 -0.376978 0.156149
v -0.218911 -0.288527 0.288527
v 0.152551 -0.288527 0.288527
v -0.218911 -0.156150 0.376978
v 0.152551 -0.156150 0.376978
v -0.218911 0.000000 0.408038
v 0.152551 -0.000000 0.408039
v -0.218911 0.156150 0.376978
v 0.152551 0.156150 0.376978
v -0.218911 0.288527 0.288527
v 0.152551 0.288527 0.288527
v -0.218911 0.376978 0.156149
v 0.152551 0.376978 0.156149
v -0.105144 0.408038 0.000000
v 0.038784 0.408038 0.000000
v 0.038784 0.376978 -0.156150
v -0.105144 0.376978 -0.156149
v 0.038784 0.288527 -0.288527
v -0.105144 0.288527 -0.288527
v 0.038784 0.156150 -0.376978
v -0.105144 0.156150 -0.376978
v 0.038784 0.000000 -0.408038
v -0.105144 0.000000 -0.408038
v 0.038784 -0.156150 -0.376978
v -0.105144 -0.156150 -0.376978
v 0.038784 -0.288527 -0.288527
v -0.105144 -0.288527 -0.288527
v 0.038784 -0.376978 -0.156150
v -0.105144 -0.376978 -0.156150
v 0.038784 -0.408038 -0.000000
v -0.105144 -0.408038 -0.000000
v 0.038784 -0.376978 0.156149
v -0.105144 -0.376978 0.156149
v 0.038784 -0.288527 0.288527
v -0.105144 -0.288527 0.288527
v 0.038784 -0.156150 0.376978
v -0.105144 -0.156150 0.376978
v 0.038784 -0.000000 0.408038
v -0.105144 0.000000 0.408038
v 0.038784 0.156150 0.376978
v -0.105144 0.156150 0.376978
v 0.038784 0.288527 0.288527
v -0.105144 0.288527 0.288527
v 0.038784 0.376978 0.156149
v -0.105144 0.376978 0.156149
v 0.152551 0.325146 -0.134680
v 0.152551 0.351935 0.000000
v 0.152551 0.248856 -0.248856
v 0.152551 0.134680 -0.325146
v 0.152551 -0.000000 -0.351935
v 0.152551 -0.134680 -0.325146
v 0.152551 -0.248856 -0.248856
v 0.152551 -0.325146 -0.134680
v 0.152551 -0.351935 -0.000000
v 0.152551 -0.325146 0.134680
v 0.152551 -0.248856 0.248856
v 0.152551 -0.134680 0.325146
v 0.152551 -0.000000 0.351935
v 0.152551 0.134680 0.325146
v 0.152551 0.248856 0.248856
v 0.152551 0.325146 0.134680
v 0.018026 0.000000 -0.000000
v -0.093546 0.342276 0.000000
v 0.027186 0.342276 0.000000
v 0.027186 0.316222 -0.130983
v -0.093546 0.316222 -0.130983
v 0.027186 0.242026 -0.242026
v -0.093546 0.242026 -0.242026
v 0.027186 0.130984 -0.316222
v -0.093546 0.130984 -0.316222
v 0.027186 0.000000 -0.342276
v -0.093546 0.000000 -0.342276
v 0.027186 -0.130983 -0.316222
v -0.093546 -0.130983 -0.316222
v 0.027186 -0.242026 -0.242026
v -0.093546 -0.242026 -0.242026
v 0.027186 -0.316222 -0.130983
v -0.093546 -0.316222 -0.130983
v 0.027186 -0.342276 -0.000000
v -0.093546 -0.342276 -0.000000
v 0.027186 -0.316222 0.130983
v -0.093546 -0.316222 0.130983
v 0.027186 -0.242026 0.242026
v -0.093546 -0.242026 0.242026
v 0.027186 -0.130984 0.316222
v -0.093546 -0.130984 0.316222
v 0.027186 -0.000000 0.342276
v -0.093546 0.000000 0.342276
v 0.027186 0.130984 0.316222
v -0.093546 0.130984 0.316222
v 0.027186 0.242026 0.242026
v -0.093546 0.242026 0.242026
v 0.027186 0.316222 0.130983
v -0.093546 0.316222 0.130983
v 0.045401 0.325146 -0.134680
v 0.045401 0.325146 0.134680
v 0.045401 0.248856 0.248856
v 0.045401 0.134680 0.325146
v 0.045401 -0.000000 0.351935
v 0.045401 -0.134680 0.325146
v 0.045401 -0.248856 0.248856
v 0.045401 -0.325146 0.134680
v 0.045401 -0.351935 -0.000000
v 0.045401 -0.325146 -0.134680
v 0.045401 -0.248856 -0.248856
v 0.045401 -0.134680 -0.325146
v 0.045401 0.000000 -0.351935
v 0.045401 0.134680 -0.325146
v 0.045401 0.248856 -0.248856
v 0.045401 0.351935 0.000000
vt 0.111793 0.779233
vt 0.108453 0.762440
vt 0.111793 0.779233
vt 0.108453 0.762440
vt 0.098941 0.748204
vt 0.098941 0.748204
vt 0.084705 0.738692
vt 0.084705 0.738692
vt 0.067912 0.735352
vt 0.067912 0.735352
vt 0.051119 0.738692
vt 0.036883 0.748204
vt 0.036883 0.748204
vt 0.027370 0.762440
vt 0.027370 0.762440
vt 0.024030 0.779233
vt 0.024030 0.779233
vt 0.027370 0.796026
vt 0.027370 0.796026
vt 0.036883 0.810262
vt 0.036883 0.810262
vt 0.051119 0.819775
vt 0.051119 0.819775
vt 0.067912 0.823115
vt 0.067912 0.823115
vt 0.084705 0.819775
vt 0.098941 0.810262
vt 0.098941 0.810262
vt 0.051119 0.738692
vt 0.041149 0.752471
vt 0.108453 0.796026
vt 0.108453 0.796026
vt 0.027370 0.762440
vt 0.051119 0.819775
vt 0.108453 0.796026
vt 0.098941 0.810262
vt 0.098941 0.810262
vt 0.067912 0.823115
vt 0.081998 0.813241
vt 0.084705 0.819775
vt 0.108453 0.796026
vt 0.111793 0.779233
vt 0.033904 0.765147
vt 0.041883 0.753205
vt 0.084705 0.819775
vt 0.093940 0.805261
vt 0.081998 0.813241
vt 0.067912 0.823115
vt 0.036883 0.748204
vt 0.033904 0.765147
vt 0.027370 0.762440
vt 0.051119 0.819775
vt 0.104721 0.779233
vt 0.036883 0.810262
vt 0.036883 0.810262
vt 0.093940 0.805261
vt 0.027370 0.796026
vt 0.027370 0.796026
vt 0.031102 0.779233
vt 0.024030 0.779233
vt 0.108453 0.762440
vt 0.104721 0.779233
vt 0.101919 0.765147
vt 0.024030 0.779233
vt 0.101919 0.793320
vt 0.036883 0.748204
vt 0.031102 0.779233
vt 0.051119 0.738692
vt 0.051119 0.738692
vt 0.093940 0.753205
vt 0.101919 0.765147
vt 0.067912 0.735352
vt 0.067912 0.735352
vt 0.111793 0.779233
vt 0.084705 0.738692
vt 0.098941 0.748204
vt 0.098941 0.748204
vt 0.093940 0.753205
vt 0.108453 0.762440
vt 0.033904 0.793320
vt 0.053428 0.814200
vt 0.102879 0.793717
vt 0.105760 0.779233
vt 0.067912 0.741385
vt 0.032945 0.793717
vt 0.084705 0.819775
vt 0.094674 0.805996
vt 0.094674 0.752471
vt 0.032945 0.764749
vt 0.067912 0.817081
vt 0.053428 0.744266
vt 0.041149 0.805996
vt 0.082396 0.744266
vt 0.030063 0.779233
vt 0.102879 0.764749
vt 0.082396 0.814200
vt 0.101919 0.793320
vt 0.067912 0.816043
vt 0.053825 0.813241
vt 0.053825 0.813241
vt 0.041883 0.805261
vt 0.041883 0.805261
vt 0.033904 0.793320
vt 0.041883 0.753205
vt 0.053825 0.745226
vt 0.067912 0.742424
vt 0.053825 0.745226
vt 0.081998 0.745226
vt 0.067912 0.742424
vt 0.067912 0.816043
vt 0.084705 0.738692
vt 0.081998 0.745226
vt 0.053428 0.744266
vt 0.041149 0.805996
vt 0.053428 0.814200
vt 0.067912 0.817081
vt 0.082396 0.744266
vt 0.067912 0.741385
vt 0.082396 0.814200
vt 0.041149 0.752471
vt 0.094674 0.805996
vt 0.032945 0.793717
vt 0.105760 0.779233
vt 0.032945 0.764749
vt 0.102879 0.764749
vt 0.030063 0.779233
vt 0.094674 0.752471
vt 0.102879 0.793717
vt 0.067912 0.741385
vt 0.102879 0.793717
vt 0.082396 0.744266
vt 0.082396 0.814200
vt 0.094674 0.752471
vt 0.102879 0.764749
vt 0.032945 0.793717
vt 0.032945 0.764749
vt 0.041149 0.752471
vt 0.041149 0.805996
vt 0.053428 0.744266
vt 0.067912 0.817081
vt 0.105760 0.779233
vt 0.053428 0.814200
vt 0.094674 0.805996
vt 0.030063 0.779233
vn -0.0000 1.0000 -0.0000
vn -0.0000 0.9239 -0.3827
vn 0.0000 0.7071 -0.7071
vn 0.0000 0.3827 -0.9239
vn 0.0000 0.0000 -1.0000
vn -0.0000 -0.3827 -0.9239
vn 0.0000 -0.7071 -0.7071
vn 0.0000 -0.9239 -0.3827
vn 0.0000 -1.0000 -0.0000
vn 0.0000 -0.9239 0.3827
vn 0.0000 -0.7071 0.7071
vn 0.0000 -0.3827 0.9239
vn -0.0000 0.0000 1.0000
vn -0.0000 0.3827 0.9239
vn -0.0000 0.7071 0.7071
vn 1.0000 -0.0000 0.0000
vn -0.0000 0.9239 0.3827
vn -1.0000 0.0000 -0.0000
vn 0.9848 -0.0000 0.1737
vn 0.9848 0.0665 0.1605
vn -0.9848 -0.1228 -0.1228
vn -0.9848 -0.1605 -0.0665
vn -0.9848 0.0665 0.1605
vn -0.9848 0.1228 0.1228
vn 0.9848 -0.1228 -0.1228
vn 0.9848 -0.1605 -0.0665
vn -0.9848 0.1605 -0.0665
vn -0.9848 0.1737 -0.0000
vn 0.9848 0.1228 0.1228
vn -0.9848 -0.1737 0.0000
vn 0.9848 0.1605 -0.0665
vn 0.9848 0.1737 -0.0000
vn -0.9848 0.1605 0.0665
vn 0.9848 -0.1737 0.0000
vn -0.9848 0.1228 -0.1228
vn 0.9848 0.1605 0.0665
vn -0.9848 -0.1605 0.0665
vn 0.9848 0.1228 -0.1228
vn 0.9848 -0.1605 0.0665
vn 0.9848 -0.0665 -0.1605
vn -0.9848 0.0000 0.1737
vn -0.9848 -0.0665 -0.1605
vn 0.9848 -0.0665 0.1605
vn 0.9848 -0.0000 -0.1737
vn -0.9848 -0.0665 0.1605
vn -0.9848 0.0000 -0.1737
vn 0.9848 -0.1228 0.1228
vn 0.9848 0.0665 -0.1605
vn -0.9848 -0.1228 0.1228
vn -0.9848 0.0665 -0.1605
vn 0.9970 -0.0000 0.0775
vn 0.9970 -0.0297 0.0716
vn 0.9970 -0.0716 -0.0297
vn 0.9970 -0.0548 -0.0548
vn 0.9970 -0.0548 0.0548
vn 0.9970 -0.0297 -0.0716
vn 0.9970 -0.0000 -0.0775
vn 0.9970 -0.0716 0.0297
vn 0.9970 -0.0775 -0.0000
vn 0.9970 0.0716 -0.0297
vn 0.9970 0.0775 -0.0000
vn 0.9970 0.0716 0.0297
vn 0.9970 0.0548 0.0548
vn 0.9970 0.0297 0.0716
vn 0.9970 0.0548 -0.0548
vn 0.9970 0.0297 -0.0716
s 1
f 2/1/1 35/2/2 34/3/1
f 4/4/2 37/5/3 35/2/2
f 6/6/3 39/7/4 37/5/3
f 8/8/4 41/9/5 39/7/4
f 10/10/5 43/11/6 41/9/5
f 43/11/6 14/12/7 45/13/7
f 45/13/7 16/14/8 47/15/8
f 16/14/8 49/16/9 47/15/8
f 18/17/9 51/18/10 49/16/9
f 20/19/10 53/20/11 51/18/10
f 22/21/11 55/22/12 53/20/11
f 24/23/12 57/24/13 55/22/12
f 26/25/13 59/26/14 57/24/13
f 59/26/14 30/27/15 61/28/15
f 12/29/16 71/30/16 14/12/16
f 32/31/17 34/3/1 63/32/17
f 30/27/15 63/32/17 61/28/15
f 15/33/18 23/34/18 31/35/18
f 62/36/15 31/35/17 29/37/15
f 58/38/19 109/39/20 60/40/20
f 64/41/17 1/42/1 31/35/17
f 45/13/21 96/43/22 94/44/21
f 60/40/14 29/37/15 27/45/14
f 59/26/23 110/46/24 108/47/23
f 25/48/13 60/40/14 27/45/14
f 46/49/25 97/50/26 48/51/26
f 56/52/12 25/48/13 23/34/12
f 35/2/27 83/53/28 34/3/28
f 54/54/11 23/34/12 21/55/11
f 60/40/20 111/56/29 62/36/29
f 52/57/10 21/55/11 19/58/10
f 47/15/22 98/59/30 96/43/22
f 17/60/9 52/57/10 19/58/10
f 36/61/31 82/62/32 85/63/31
f 15/33/8 50/64/9 17/60/9
f 34/3/28 112/65/33 63/32/33
f 46/49/7 15/33/8 13/66/7
f 48/51/26 99/67/34 50/64/34
f 44/68/6 13/66/7 11/69/6
f 35/2/27 86/70/35 84/71/27
f 42/72/5 11/69/6 9/73/5
f 64/41/36 82/62/32 33/74/32
f 7/75/4 42/72/5 9/73/5
f 51/18/37 98/59/30 49/16/30
f 38/76/3 7/75/4 5/77/3
f 36/61/31 87/78/38 38/76/38
f 36/61/2 5/77/3 3/79/2
f 63/32/33 110/46/24 61/28/24
f 1/42/1 36/61/2 3/79/2
f 50/64/34 101/80/39 52/57/39
f 22/21/16 76/81/16 24/23/16
f 2/1/16 80/82/16 66/83/16
f 8/8/16 69/84/16 10/10/16
f 18/17/16 74/85/16 20/19/16
f 28/86/16 79/87/16 30/27/16
f 4/4/16 67/88/16 6/6/16
f 14/12/16 72/89/16 16/14/16
f 24/23/16 77/90/16 26/25/16
f 12/29/16 69/84/16 70/91/16
f 20/19/16 75/92/16 22/21/16
f 30/27/16 80/82/16 32/31/16
f 6/6/16 68/93/16 8/8/16
f 16/14/16 73/94/16 18/17/16
f 2/1/16 65/95/16 4/4/16
f 28/86/16 77/90/16 78/96/16
f 110/46/15 113/97/17 111/56/15
f 112/65/17 82/62/1 113/97/17
f 108/47/14 111/56/15 109/39/14
f 107/98/13 108/47/14 109/39/14
f 104/99/12 107/98/13 105/100/12
f 102/101/11 105/100/12 103/102/11
f 100/103/10 103/102/11 101/80/10
f 99/67/9 100/103/10 101/80/10
f 96/43/8 99/67/9 97/50/8
f 94/44/7 97/50/8 95/104/7
f 93/105/6 94/44/7 95/104/7
f 91/106/5 92/107/6 93/105/6
f 89/108/4 90/109/5 91/106/5
f 86/70/3 89/108/4 87/78/3
f 84/71/2 87/78/3 85/63/2
f 83/53/1 85/63/2 82/62/1
f 44/68/40 95/104/25 46/49/25
f 59/26/23 106/110/41 57/24/41
f 43/11/42 94/44/21 92/107/42
f 56/52/43 107/98/19 58/38/19
f 42/72/44 93/105/40 44/68/40
f 55/22/45 106/110/41 104/99/45
f 43/11/42 90/109/46 41/9/46
f 56/52/43 103/102/47 105/100/43
f 40/111/48 91/106/44 42/72/44
f 55/22/45 102/101/49 53/20/49
f 41/9/46 88/112/50 39/7/50
f 52/57/39 103/102/47 54/54/47
f 38/76/38 89/108/48 40/111/48
f 53/20/49 100/103/37 51/18/37
f 62/36/29 113/97/36 64/41/36
f 37/5/35 88/112/50 86/70/35
f 69/84/13 125/113/14 70/91/14
f 74/85/2 120/114/3 75/92/3
f 75/92/3 119/115/4 76/81/4
f 77/90/5 119/115/4 118/116/5
f 69/84/13 127/117/12 126/118/13
f 77/90/5 117/119/6 78/96/6
f 71/30/15 125/113/14 124/120/15
f 79/87/7 117/119/6 116/121/7
f 73/94/1 121/122/2 74/85/2
f 80/82/8 129/123/9 66/83/9
f 71/30/15 123/124/17 72/89/17
f 66/83/9 114/125/10 65/95/10
f 67/88/11 127/117/12 68/93/12
f 72/89/17 122/126/1 73/94/1
f 65/95/10 128/127/11 67/88/11
f 79/87/7 115/128/8 80/82/8
f 126/118/51 127/117/52 81/129/16
f 115/128/53 116/121/54 81/130/16
f 127/117/52 128/127/55 81/131/16
f 117/119/56 118/116/57 81/132/16
f 128/127/55 114/125/58 81/133/16
f 114/125/58 129/123/59 81/134/16
f 121/122/60 122/126/61 81/135/16
f 123/124/62 124/120/63 81/136/16
f 124/120/63 125/113/64 81/137/16
f 120/114/65 121/122/60 81/138/16
f 125/113/64 126/118/51 81/139/16
f 118/116/57 119/115/66 81/140/16
f 129/123/59 115/128/53 81/141/16
f 119/115/66 120/114/65 81/142/16
f 116/121/54 117/119/56 81/143/16
f 122/126/61 123/124/62 81/144/16
f 2/1/1 4/4/2 35/2/2
f 4/4/2 6/6/3 37/5/3
f 6/6/3 8/8/4 39/7/4
f 8/8/4 10/10/5 41/9/5
f 10/10/5 12/29/6 43/11/6
f 43/11/6 12/29/6 14/12/7
f 45/13/7 14/12/7 16/14/8
f 16/14/8 18/17/9 49/16/9
f 18/17/9 20/19/10 51/18/10
f 20/19/10 22/21/11 53/20/11
f 22/21/11 24/23/12 55/22/12
f 24/23/12 26/25/13 57/24/13
f 26/25/13 28/86/14 59/26/14
f 59/26/14 28/86/14 30/27/15
f 12/29/16 70/91/16 71/30/16
f 32/31/17 2/1/1 34/3/1
f 30/27/15 32/31/17 63/32/17
f 31/35/18 1/42/18 7/75/18
f 1/42/18 3/79/18 7/75/18
f 3/79/18 5/77/18 7/75/18
f 7/75/18 9/73/18 15/33/18
f 9/73/18 11/69/18 15/33/18
f 11/69/18 13/66/18 15/33/18
f 15/33/18 17/60/18 19/58/18
f 19/58/18 21/55/18 23/34/18
f 23/34/18 25/48/18 27/45/18
f 27/45/18 29/37/18 31/35/18
f 15/33/18 19/58/18 23/34/18
f 23/34/18 27/45/18 31/35/18
f 31/35/18 7/75/18 15/33/18
f 62/36/15 64/41/17 31/35/17
f 58/38/19 107/98/19 109/39/20
f 64/41/17 33/74/1 1/42/1
f 45/13/21 47/15/22 96/43/22
f 60/40/14 62/36/15 29/37/15
f 59/26/23 61/28/24 110/46/24
f 25/48/13 58/38/13 60/40/14
f 46/49/25 95/104/25 97/50/26
f 56/52/12 58/38/13 25/48/13
f 35/2/27 84/71/27 83/53/28
f 54/54/11 56/52/12 23/34/12
f 60/40/20 109/39/20 111/56/29
f 52/57/10 54/54/11 21/55/11
f 47/15/22 49/16/30 98/59/30
f 17/60/9 50/64/9 52/57/10
f 36/61/31 33/74/32 82/62/32
f 15/33/8 48/51/8 50/64/9
f 34/3/28 83/53/28 112/65/33
f 46/49/7 48/51/8 15/33/8
f 48/51/26 97/50/26 99/67/34
f 44/68/6 46/49/7 13/66/7
f 35/2/27 37/5/35 86/70/35
f 42/72/5 44/68/6 11/69/6
f 64/41/36 113/97/36 82/62/32
f 7/75/4 40/111/4 42/72/5
f 51/18/37 100/103/37 98/59/30
f 38/76/3 40/111/4 7/75/4
f 36/61/31 85/63/31 87/78/38
f 36/61/2 38/76/3 5/77/3
f 63/32/33 112/65/33 110/46/24
f 1/42/1 33/74/1 36/61/2
f 50/64/34 99/67/34 101/80/39
f 22/21/16 75/92/16 76/81/16
f 2/1/16 32/31/16 80/82/16
f 8/8/16 68/93/16 69/84/16
f 18/17/16 73/94/16 74/85/16
f 28/86/16 78/96/16 79/87/16
f 4/4/16 65/95/16 67/88/16
f 14/12/16 71/30/16 72/89/16
f 24/23/16 76/81/16 77/90/16
f 12/29/16 10/10/16 69/84/16
f 20/19/16 74/85/16 75/92/16
f 30/27/16 79/87/16 80/82/16
f 6/6/16 67/88/16 68/93/16
f 16/14/16 72/89/16 73/94/16
f 2/1/16 66/83/16 65/95/16
f 28/86/16 26/25/16 77/90/16
f 110/46/15 112/65/17 113/97/17
f 112/65/17 83/53/1 82/62/1
f 108/47/14 110/46/15 111/56/15
f 107/98/13 106/110/13 108/47/14
f 104/99/12 106/110/13 107/98/13
f 102/101/11 104/99/12 105/100/12
f 100/103/10 102/101/11 103/102/11
f 99/67/9 98/59/9 100/103/10
f 96/43/8 98/59/9 99/67/9
f 94/44/7 96/43/8 97/50/8
f 93/105/6 92/107/6 94/44/7
f 91/106/5 90/109/5 92/107/6
f 89/108/4 88/112/4 90/109/5
f 86/70/3 88/112/4 89/108/4
f 84/71/2 86/70/3 87/78/3
f 83/53/1 84/71/2 85/63/2
f 44/68/40 93/105/40 95/104/25
f 59/26/23 108/47/23 106/110/41
f 43/11/42 45/13/21 94/44/21
f 56/52/43 105/100/43 107/98/19
f 42/72/44 91/106/44 93/105/40
f 55/22/45 57/24/41 106/110/41
f 43/11/42 92/107/42 90/109/46
f 56/52/43 54/54/47 103/102/47
f 40/111/48 89/108/48 91/106/44
f 55/22/45 104/99/45 102/101/49
f 41/9/46 90/109/46 88/112/50
f 52/57/39 101/80/39 103/102/47
f 38/76/38 87/78/38 89/108/48
f 53/20/49 102/101/49 100/103/37
f 62/36/29 111/56/29 113/97/36
f 37/5/35 39/7/50 88/112/50
f 69/84/13 126/118/13 125/113/14
f 74/85/2 121/122/2 120/114/3
f 75/92/3 120/114/3 119/115/4
f 77/90/5 76/81/4 119/115/4
f 69/84/13 68/93/12 127/117/12
f 77/90/5 118/116/5 117/119/6
f 71/30/15 70/91/14 125/113/14
f 79/87/7 78/96/6 117/119/6
f 73/94/1 122/126/1 121/122/2
f 80/82/8 115/128/8 129/123/9
f 71/30/15 124/120/15 123/124/17
f 66/83/9 129/123/9 114/125/10
f 67/88/11 128/127/11 127/117/12
f 72/89/17 123/124/17 122/126/1
f 65/95/10 114/125/10 128/127/11
f 79/87/7 116/121/7 115/128/8
